 http://www.hotimg.com/direct/UK7chdq.jpg

Screens:
 
http://www.hotimg.com/direct/pvNGguk.jpg
 
http://www.hotimg.com/direct/jtZWMcs.jpg
 
http://www.hotimg.com/direct/vjAvgFd.jpg
 
http://www.hotimg.com/direct/JpcVRCV.jpg

Alternative:
 
http://www.postimg.com/image/50000/photo-49192.jpg
 
http://www.postimg.com/image/50000/photo-49193.jpg
 
http://www.postimg.com/image/50000/photo-49194.jpg
 
http://www.postimg.com/image/50000/photo-49195.jpg

ScreenCaps:
 
http://www.postimg.com/image/50000/photo-49198.jpg

Cars 2 (2011) DVDRip
Format                           : AVI
Format/Info                      : Audio Video Interleave
Format profile                   : OpenDML
File size                        : 1.51 GiB
Duration                         : 1h 47mn
Overall bit rate                 : 2 020 Kbps
Writing application              : VirtualDubMod 1.5.10.2 (build 2542/release)
Writing library                  : VirtualDubMod build 2542/release
Original source form             : MAX TORRENTZ
Copyright                        : SIGISMUNT

Video
ID                               : 0
Format                           : MPEG-4 Visual
Format profile                   : AdvancedSimple@L5
Format settings, BVOP            : Yes
Format settings, QPel            : No
Format settings, GMC             : No warppoints
Format settings, Matrix          : Custom
Codec ID                         : XVID
Codec ID/Hint                    : XviD
Duration                         : 1h 47mn
Bit rate                         : 1 631 Kbps
Width                            : 720 pixels
Height                           : 304 pixels
Display aspect ratio             : 2.35:1
Frame rate                       : 23.976 fps
Resolution                       : 24 bits
Colorimetry                      : 4:2:0
Scan type                        : Progressive
Bits/(Pixel*Frame)               : 0.311
Stream size                      : 1.22 GiB (81%)
Writing library                  : XviD 58

Audio
ID                               : 1
Format                           : AC-3
Format/Info                      : Audio Coding 3
Codec ID                         : 2000
Duration                         : 1h 46mn
Bit rate mode                    : Constant
Bit rate                         : 384 Kbps
Channel(s)                       : 6 channels
Channel positions                : Front: L C R, Surround: L R, LFE
Sampling rate                    : 48.0 KHz
Stream size                      : 293 MiB (19%)
Alignment                        : Aligned on interleaves
Interleave, duration             : 64 ms (1.54 video frames)
Interleave, preload duration     : 192 ms
 
Source: DVD-perfect a/v/sync quality
This torrent is not seedbox supported,please seed it to the MAX

Note:If you have something to offer as early releases,seedboxes,links,accounts,etc
please contact us on piratepedia[@]msn/gmail.com or our website torentz 3xforum ro

Cars 2 (2011) DVDRip XviD-MAX Torrent Free Download
 
http://thepiratebay.org/user/extremezone/0/7

How To Get Your Maxspeed (uTorrent)

Torrent Client - Preferences - Bandwidth - Number of connections - Set aprox. 500 for each 
Torrent Client - Preferences - BiTorrent - Protocol Encryption - Forced
Bandwidth Allocation - High (Set download/upload limit - Unlimited)
Stop Other Active Torrents - Start downloading and wait for connections.
Enjoy and Seed for at least 1:1 ratio. Don't forget to say thanks/leave reviews.
Before downloading you should check/google search sample "release name""sample".
Greets to all actual/future p2p/scene QUALITY groups and affiliate websites.
Don't trust IMDb robot or bad ratings,always watch some trailers first.
Ignore stupid comments/fake/mislabeled/no-DVDrips/CAM/TS/RAR uploads.
Please spread this release/torrent to your friends/forums/etc.
If you need translation subs visit some subtitles sites.
Report if you see online streaming or other spam links.
Recommended movie player VLC PLAYER.